HIERARCHY
ROOT Hips
{
	OFFSET 0.000000 0.000000 0.000000
	CHANNELS 6 Xposition Yposition Zposition Xrotation Yrotation Zrotation
	JOINT LeftUpLeg_virtual
	{
		OFFSET 0.000000 0.000000 0.000000
		CHANNELS 3 Xrotation Yrotation Zrotation
		JOINT LeftUpLeg
		{
			OFFSET 10.205400 -3.823500 0.155100
			CHANNELS 3 Xrotation Yrotation Zrotation
			JOINT LeftLeg
			{
				OFFSET 0.708757 -12.982077 0.567790
				CHANNELS 3 Xrotation Yrotation Zrotation
				JOINT LeftFoot
				{
					OFFSET -0.708756 -10.717838 -2.184338
					CHANNELS 3 Xrotation Yrotation Zrotation
					JOINT LeftToeBase
					{
						OFFSET 0.108149 -7.191104 7.560241
						CHANNELS 3 Xrotation Yrotation Zrotation
						JOINT LeftToe_End
						{
							OFFSET 0.070230 0.081724 4.490308
							CHANNELS 3 Xrotation Yrotation Zrotation
							End Site
							{
								OFFSET 0 0 0
							}
						}
					}
				}
			}
		}
	}
	JOINT RightUpLeg_virtual
	{
		OFFSET 0.000000 0.000000 0.000000
		CHANNELS 3 Xrotation Yrotation Zrotation
		JOINT RightUpLeg
		{
			OFFSET -10.205400 -3.823500 0.005500
			CHANNELS 3 Xrotation Yrotation Zrotation
			JOINT RightLeg
			{
				OFFSET -0.708756 -12.982134 0.610632
				CHANNELS 3 Xrotation Yrotation Zrotation
				JOINT RightFoot
				{
					OFFSET 0.708754 -10.717769 -1.945823
					CHANNELS 3 Xrotation Yrotation Zrotation
					JOINT RightToeBase
					{
						OFFSET -0.108140 -7.191069 7.372968
						CHANNELS 3 Xrotation Yrotation Zrotation
						JOINT RightToe_End
						{
							OFFSET -0.070227 0.081735 4.479403
							CHANNELS 3 Xrotation Yrotation Zrotation
							End Site
							{
								OFFSET 0 0 0
							}
						}
					}
				}
			}
		}
	}
	JOINT Spine_virtual
	{
		OFFSET 0.000000 0.000000 0.000000
		CHANNELS 3 Xrotation Yrotation Zrotation
		JOINT Spine
		{
			OFFSET 0.000000 6.876099 0.125700
			CHANNELS 3 Xrotation Yrotation Zrotation
			JOINT Spine1
			{
				OFFSET 0.000000 5.730043 0.104720
				CHANNELS 3 Xrotation Yrotation Zrotation
				JOINT Spine1_split
				{
					OFFSET 0.000000 5.730043 0.104720
					CHANNELS 3 Xrotation Yrotation Zrotation
					JOINT Spine2
					{
						OFFSET 0.000000 5.730043 0.104720
						CHANNELS 3 Xrotation Yrotation Zrotation
						JOINT Neck_virtual
						{
							OFFSET 0.000000 0.000000 0.000000
							CHANNELS 3 Xrotation Yrotation Zrotation
							JOINT Neck
							{
								OFFSET 0.000000 10.314075 0.188496
								CHANNELS 3 Xrotation Yrotation Zrotation
								JOINT Head
								{
									OFFSET 0.000000 7.643700 -2.377400
									CHANNELS 3 Xrotation Yrotation Zrotation
									JOINT HeadTop_End
									{
										OFFSET 0.000000 43.788605 -13.619600
										CHANNELS 3 Xrotation Yrotation Zrotation
										End Site
										{
											OFFSET 0 0 0
										}
									}
								}
							}
						}
						JOINT LeftShoulder_virtual
						{
							OFFSET 0.000000 0.000000 0.000000
							CHANNELS 3 Xrotation Yrotation Zrotation
							JOINT LeftShoulder
							{
								OFFSET 2.196100 4.412489 0.087492
								CHANNELS 3 Xrotation Yrotation Zrotation
								JOINT LeftShoulder_split
								{
									OFFSET 2.196100 4.412489 0.087492
									CHANNELS 3 Xrotation Yrotation Zrotation
									JOINT LeftArm
									{
										OFFSET 8.771219 -2.981674 -0.026999
										CHANNELS 3 Xrotation Yrotation Zrotation
										JOINT LeftForeArm
										{
											OFFSET 8.512804 0.000000 -0.000000
											CHANNELS 3 Xrotation Yrotation Zrotation
											JOINT LeftHand
											{
												OFFSET 18.484802 0.000000 -0.000000
												CHANNELS 3 Xrotation Yrotation Zrotation
												End Site
												{
													OFFSET 0 0 0
												}
											}
										}
									}
								}
							}
						}
						JOINT RightShoulder_virtual
						{
							OFFSET 0.000000 0.000000 0.000000
							CHANNELS 3 Xrotation Yrotation Zrotation
							JOINT RightShoulder
							{
								OFFSET -2.196100 4.412496 0.070690
								CHANNELS 3 Xrotation Yrotation Zrotation
								JOINT RightShoulder_split
								{
									OFFSET -2.196100 4.412496 0.070690
									CHANNELS 3 Xrotation Yrotation Zrotation
									JOINT RightArm
									{
										OFFSET -8.771282 -2.981682 -0.094208
										CHANNELS 3 Xrotation Yrotation Zrotation
										JOINT RightForeArm
										{
											OFFSET -8.494598 0.000000 0.000000
											CHANNELS 3 Xrotation Yrotation Zrotation
											JOINT RightHand
											{
												OFFSET -18.483803 0.000000 0.000001
												CHANNELS 3 Xrotation Yrotation Zrotation
												End Site
												{
													OFFSET 0 0 0
												}
											}
										}
									}
								}
							}
						}
					}
				}
			}
		}
	}
}
MOTION
Frames: 4
Frame Time: 0.03333333
0.218633 31.465576 3.461884 0.000000 0.000000 0.000000 -13.178805 -1.727699 -4.851972 -36.084504 19.374334 12.467923 50.563402 -7.906277 11.314572 -4.775498 -7.911722 -1.628659 -0.920825 0.000003 0.000003 0.000000 0.000000 0.000000 -13.178805 -1.727699 -4.851972 -21.049280 -34.721530 -2.308369 41.290539 9.272873 -10.598103 -7.193513 6.709164 -3.940065 -0.000059 -0.000000 0.000002 0.000000 0.000000 0.000000 -13.178805 -1.727699 -4.851972 5.920440 -0.781267 2.823961 9.021538 -0.429998 -0.455594 0.000000 0.000000 0.000000 0.000000 0.000000 0.000000 9.028562 -0.103889 -0.473628 15.499588 0.680418 0.863641 -2.573556 0.818023 5.726066 0.000000 0.000000 0.000000 9.028562 -0.103889 -0.473628 0.681783 3.908462 -11.397538 0.000000 0.000000 0.000000 74.323557 -65.285523 4.646524 0.000005 -18.010094 0.000002 0.000000 0.000000 0.000000 9.028562 -0.103889 -0.473628 1.412996 0.332764 10.814155 0.000000 0.000000 0.000000 8.850507 40.127197 57.894036 -0.000012 26.003480 0.000005 0.000000 0.000000 0.000000 
0.227522 31.466362 3.462015 0.000000 0.000000 0.000000 -13.186692 -1.801694 -4.820053 -36.033783 19.498720 12.472983 50.522581 -7.913714 11.311273 -4.791443 -7.933323 -1.604756 -0.917069 0.000005 0.000002 0.000000 0.000000 0.000000 -13.186692 -1.801694 -4.820053 -21.120973 -34.526668 -2.311000 41.345423 9.259524 -10.607932 -7.177684 6.626768 -3.899537 -0.000058 -0.000000 0.000002 0.000000 0.000000 0.000000 -13.186692 -1.801694 -4.820053 5.918614 -0.772175 2.811225 9.015933 -0.413233 -0.454230 0.000000 0.000000 0.000000 0.000000 0.000000 0.000000 9.022703 -0.086283 -0.473039 15.501750 0.686837 0.839503 -2.569937 0.854903 5.720953 0.000000 0.000000 0.000000 9.022703 -0.086283 -0.473039 0.684057 3.939020 -11.452466 0.000000 0.000000 0.000000 74.202499 -65.177838 4.592530 0.000020 -18.130764 0.000004 0.000000 0.000000 0.000000 9.022703 -0.086283 -0.473039 1.414567 0.343950 10.792040 0.000000 0.000000 0.000000 8.851293 40.106659 57.862740 0.000003 26.024370 0.000013 0.000000 0.000000 0.000000 
0.233545 31.465523 3.462706 0.000000 0.000000 0.000000 -13.194990 -1.860640 -4.783599 -35.985179 19.602947 12.466982 50.487116 -7.921167 11.307439 -4.803509 -7.948265 -1.586305 -0.914344 0.000005 -0.000003 0.000000 0.000000 0.000000 -13.194990 -1.860640 -4.783599 -21.210615 -34.361965 -2.338389 41.421785 9.239368 -10.623702 -7.174081 6.594607 -3.859672 -0.000063 0.000002 0.000002 0.000000 0.000000 0.000000 -13.194990 -1.860640 -4.783599 5.916953 -0.764791 2.787989 9.011901 -0.402151 -0.453031 0.000000 0.000000 0.000000 0.000000 0.000000 0.000000 9.018514 -0.075170 -0.472220 15.504656 0.694577 0.815025 -2.576174 0.881120 5.745638 0.000000 0.000000 0.000000 9.018514 -0.075170 -0.472220 0.686106 3.965378 -11.500644 0.000000 0.000000 0.000000 73.964747 -65.059758 4.417146 0.000004 -18.276575 -0.000005 0.000000 0.000000 0.000000 9.018514 -0.075170 -0.472220 1.419727 0.370541 10.793487 0.000000 0.000000 0.000000 8.882752 40.061218 57.791795 0.000017 26.096814 -0.000034 0.000000 0.000000 0.000000 
0.235606 31.462364 3.464121 0.000000 0.000000 0.000000 -13.202495 -1.899273 -4.744316 -35.945486 19.677372 12.451265 50.464525 -7.927846 11.303109 -4.812819 -7.955763 -1.575643 -0.912465 0.000002 0.000002 0.000000 0.000000 0.000000 -13.202495 -1.899273 -4.744316 -21.320806 -34.242033 -2.394895 41.523029 9.219021 -10.646029 -7.183746 6.626073 -3.823768 -0.000062 0.000005 0.000001 0.000000 0.000000 0.000000 -13.202495 -1.899273 -4.744316 5.914925 -0.759495 2.754353 9.008164 -0.397412 -0.451910 0.000000 0.000000 0.000000 0.000000 0.000000 0.000000 9.014736 -0.071260 -0.471072 15.511846 0.702970 0.793774 -2.592640 0.892663 5.800244 0.000000 0.000000 0.000000 9.014736 -0.071260 -0.471072 0.687711 3.984598 -11.537010 0.000000 0.000000 0.000000 73.650900 -64.944560 4.149673 0.000002 -18.432558 0.000014 0.000000 0.000000 0.000000 9.014736 -0.071260 -0.471072 1.426895 0.405394 10.811319 0.000000 0.000000 0.000000 8.935150 39.998773 57.704047 -0.000009 26.203539 -0.000015 0.000000 0.000000 0.000000 
